<?xml version="1.0"?>
<svg xmlns="http://www.w3.org/2000/svg" height="512px" viewBox="-63 0 479 480" width="512px"><g><path d="m200.5 0h-48c-22.082031.0273438-39.972656 17.917969-40 40v8h-88c-13.253906 0-24 10.746094-24 24v384c0 13.253906 10.746094 24 24 24h304c13.253906 0 24-10.746094 24-24v-384c0-13.253906-10.746094-24-24-24h-88v-8c-.027344-22.082031-17.917969-39.9726562-40-40zm-72 40c0-13.253906 10.746094-24 24-24h48c13.253906 0 24 10.746094 24 24v8h-96zm80 40h-64v-16h64zm-56 48h48c13.253906 0 24-10.746094 24-24v-8h80v336h-256v-336h80v8c0 13.253906 10.746094 24 24 24zm56-24c0 4.417969-3.582031 8-8 8h-48c-4.417969 0-8-3.582031-8-8v-8h64zm128-32v384c0 4.417969-3.582031 8-8 8h-304c-4.417969 0-8-3.582031-8-8v-384c0-4.417969 3.582031-8 8-8h104v16h-88c-4.417969 0-8 3.582031-8 8v352c0 4.417969 3.582031 8 8 8h272c4.417969 0 8-3.582031 8-8v-352c0-4.417969-3.582031-8-8-8h-88v-16h104c4.417969 0 8 3.582031 8 8zm0 0" data-original="#000000" class="active-path" data-old_color="#000000" fill="#D3D3D3"/><path d="m104.5 248c0 39.765625 32.234375 72 72 72s72-32.234375 72-72-32.234375-72-72-72c-39.746094.042969-71.957031 32.253906-72 72zm72-56c30.929688 0 56 25.070312 56 56s-25.070312 56-56 56-56-25.070312-56-56c.035156-30.914062 25.085938-55.964844 56-56zm0 0" data-original="#000000" class="active-path" data-old_color="#000000" fill="#D3D3D3"/><path d="m161.84375 276.441406c1.328125 1.992188 3.480469 3.28125 5.863281 3.519532.265625.027343.527344.042968.792969.039062 2.121094 0 4.15625-.84375 5.65625-2.34375l40-40c3.03125-3.140625 2.988281-8.128906-.097656-11.214844-3.085938-3.085937-8.074219-3.128906-11.214844-.097656l-33.105469 33.097656-10.582031-15.882812c-2.453125-3.675782-7.421875-4.667969-11.097656-2.214844-3.675782 2.453125-4.667969 7.421875-2.214844 11.097656zm0 0" data-original="#000000" class="active-path" data-old_color="#000000" fill="#D3D3D3"/><path d="m248.5 352h-144c-4.417969 0-8 3.582031-8 8s3.582031 8 8 8h144c4.417969 0 8-3.582031 8-8s-3.582031-8-8-8zm0 0" data-original="#000000" class="active-path" data-old_color="#000000" fill="#D3D3D3"/><path d="m224.5 384h-96c-4.417969 0-8 3.582031-8 8s3.582031 8 8 8h96c4.417969 0 8-3.582031 8-8s-3.582031-8-8-8zm0 0" data-original="#000000" class="active-path" data-old_color="#000000" fill="#D3D3D3"/><path d="m240.5 112h16v16h-16zm0 0" data-original="#000000" class="active-path" data-old_color="#000000" fill="#D3D3D3"/><path d="m272.5 112h16v16h-16zm0 0" data-original="#000000" class="active-path" data-old_color="#000000" fill="#D3D3D3"/><path d="m64.5 112h16v16h-16zm0 0" data-original="#000000" class="active-path" data-old_color="#000000" fill="#D3D3D3"/><path d="m96.5 112h16v16h-16zm0 0" data-original="#000000" class="active-path" data-old_color="#000000" fill="#D3D3D3"/></g> </svg>
