<?xml version="1.0"?>
<svg xmlns="http://www.w3.org/2000/svg" height="512px" viewBox="0 0 512 512" width="512px"><g><path d="m211 46c0 24.851562 20.148438 45 45 45s45-20.148438 45-45-20.148438-46-45-46-45 21.148438-45 46zm0 0" data-original="#000000" class="active-path" data-old_color="#000000" fill="#7CFC00"/><path d="m46 241c24.851562 0 45-20.148438 45-45s-20.148438-45-45-45-46 20.148438-46 45 21.148438 45 46 45zm0 0" data-original="#000000" class="active-path" data-old_color="#000000" fill="#7CFC00"/><path d="m91 316c0-24.851562-20.148438-45-45-45s-46 20.148438-46 45v75h91zm0 0" data-original="#000000" class="active-path" data-old_color="#000000" fill="#7CFC00"/><path d="m512 196c0 24.851562-20.148438 45-45 45s-45-20.148438-45-45 20.148438-45 45-45 45 20.148438 45 45zm0 0" data-original="#000000" class="active-path" data-old_color="#000000" fill="#7CFC00"/><path d="m467 271c-24.851562 0-45 20.148438-45 45v75h90v-75c0-24.851562-20.148438-45-45-45zm0 0" data-original="#000000" class="active-path" data-old_color="#000000" fill="#7CFC00"/><path d="m301 346c0 24.851562-20.148438 45-45 45s-45-20.148438-45-45 20.148438-45 45-45 45 20.148438 45 45zm0 0" data-original="#000000" class="active-path" data-old_color="#000000" fill="#7CFC00"/><path d="m181 466v46h150v-46c0-24.660156-12.0625-46.351562-30.4375-60.023438-12.496094 9.3125-27.816406 15.023438-44.5625 15.023438s-32.066406-5.710938-44.5625-15.023438c-18.375 13.671876-30.4375 35.363282-30.4375 60.023438zm0 0" data-original="#000000" class="active-path" data-old_color="#000000" fill="#7CFC00"/><path d="m121 316c0 34.25 21.402344 64.375 54.023438 83.539062 4.8125-5.792968 10.4375-11.003906 16.546874-15.785156-6.550781-11.132812-10.570312-23.929687-10.570312-37.753906 0-41.351562 33.648438-75 75-75s75 33.648438 75 75c0 13.824219-4.019531 26.621094-10.570312 37.753906 6.105468 4.785156 11.730468 9.992188 16.542968 15.785156 32.625-19.164062 55.027344-49.289062 55.027344-83.539062 0-57.988281-61.441406-105-136-105s-135 47.011719-135 105zm0 0" data-original="#000000" class="active-path" data-old_color="#000000" fill="#7CFC00"/><path d="m331 195.902344v-29.902344c0-24.660156-12.0625-46.351562-30.4375-60.023438-12.496094 9.3125-27.816406 15.023438-44.5625 15.023438s-32.066406-5.710938-44.5625-15.023438c-18.375 13.671876-30.4375 35.363282-30.4375 60.023438v29.902344c22.53125-9.460938 47.984375-14.902344 75-14.902344s52.46875 5.441406 75 14.902344zm0 0" data-original="#000000" class="active-path" data-old_color="#000000" fill="#7CFC00"/></g> </svg>
