<?xml version="1.0"?>
<svg xmlns="http://www.w3.org/2000/svg" height="512px" viewBox="0 0 512 512" width="512px"><g><path d="m473.601562 512h-435.203124c-21.167969 0-38.398438-17.230469-38.398438-38.398438v-435.203124c0-21.167969 17.230469-38.398438 38.398438-38.398438h435.203124c21.167969 0 38.398438 17.230469 38.398438 38.398438v435.203124c0 21.167969-17.230469 38.398438-38.398438 38.398438zm-435.203124-494.933594c-11.757813 0-21.332032 9.574219-21.332032 21.332032v435.203124c0 11.757813 9.574219 21.332032 21.332032 21.332032h435.203124c11.765626 0 21.332032-9.574219 21.332032-21.332032v-435.203124c0-11.757813-9.574219-21.332032-21.332032-21.332032zm0 0" data-original="#000000" class="active-path" data-old_color="#000000" fill="#B677F0"/><path d="m76.800781 85.332031h-34.132812c-4.710938 0-8.535157-3.820312-8.535157-8.53125v-34.132812c0-4.710938 3.824219-8.535157 8.535157-8.535157h34.132812c4.710938 0 8.53125 3.824219 8.53125 8.535157v34.132812c0 4.710938-3.820312 8.53125-8.53125 8.53125zm-25.601562-17.066406h17.066406v-17.066406h-17.066406zm0 0" data-original="#000000" class="active-path" data-old_color="#000000" fill="#B677F0"/><path d="m145.066406 85.332031h-34.132812c-4.710938 0-8.535156-3.820312-8.535156-8.53125v-34.132812c0-4.710938 3.824218-8.535157 8.535156-8.535157h34.132812c4.710938 0 8.535156 3.824219 8.535156 8.535157v34.132812c0 4.710938-3.824218 8.53125-8.535156 8.53125zm-25.601562-17.066406h17.070312v-17.066406h-17.070312zm0 0" data-original="#000000" class="active-path" data-old_color="#000000" fill="#B677F0"/><path d="m213.332031 85.332031h-34.132812c-4.710938 0-8.53125-3.820312-8.53125-8.53125v-34.132812c0-4.710938 3.820312-8.535157 8.53125-8.535157h34.132812c4.710938 0 8.535157 3.824219 8.535157 8.535157v34.132812c0 4.710938-3.824219 8.53125-8.535157 8.53125zm-25.597656-17.066406h17.066406v-17.066406h-17.066406zm0 0" data-original="#000000" class="active-path" data-old_color="#000000" fill="#B677F0"/><path d="m503.464844 119.464844h-494.929688c-4.710937 0-8.535156-3.820313-8.535156-8.53125v-72.535156c0-21.167969 17.230469-38.398438 38.398438-38.398438h435.203124c21.167969 0 38.398438 17.230469 38.398438 38.398438v72.535156c0 4.710937-3.824219 8.53125-8.535156 8.53125zm-486.398438-17.066406h477.867188v-64c0-11.757813-9.574219-21.332032-21.332032-21.332032h-435.203124c-11.757813 0-21.332032 9.574219-21.332032 21.332032zm0 0" data-original="#000000" class="active-path" data-old_color="#000000" fill="#B677F0"/><path d="m170.667969 290.132812h-110.933594c-4.710937 0-8.535156-3.824218-8.535156-8.53125v-34.136718c0-4.707032 3.824219-8.53125 8.535156-8.53125h110.933594c4.710937 0 8.53125 3.824218 8.53125 8.53125v34.136718c0 4.707032-3.820313 8.53125-8.53125 8.53125zm-102.402344-17.066406h93.867187v-17.066406h-93.867187zm0 0" data-original="#000000" class="active-path" data-old_color="#000000" fill="#B677F0"/><path d="m93.867188 443.734375h-34.132813c-4.710937 0-8.535156-3.824219-8.535156-8.535156v-34.132813c0-4.710937 3.824219-8.53125 8.535156-8.53125h34.132813c4.710937 0 8.53125 3.820313 8.53125 8.53125v34.132813c0 4.710937-3.820313 8.535156-8.53125 8.535156zm-25.601563-17.066406h17.066406v-17.066407h-17.066406zm0 0" data-original="#000000" class="active-path" data-old_color="#000000" fill="#B677F0"/><path d="m170.667969 443.734375h-34.132813c-4.710937 0-8.535156-3.824219-8.535156-8.535156v-34.132813c0-4.710937 3.824219-8.53125 8.535156-8.53125h34.132813c4.710937 0 8.53125 3.820313 8.53125 8.53125v34.132813c0 4.710937-3.820313 8.535156-8.53125 8.535156zm-25.601563-17.066406h17.066406v-17.066407h-17.066406zm0 0" data-original="#000000" class="active-path" data-old_color="#000000" fill="#B677F0"/><path d="m136.535156 332.800781h-76.800781c-4.710937 0-8.535156-3.824219-8.535156-8.535156s3.824219-8.53125 8.535156-8.53125h76.800781c4.707032 0 8.53125 3.820313 8.53125 8.53125s-3.824218 8.535156-8.53125 8.535156zm0 0" data-original="#000000" class="active-path" data-old_color="#000000" fill="#B677F0"/><path d="m170.667969 366.933594h-110.933594c-4.710937 0-8.535156-3.824219-8.535156-8.535156 0-4.707032 3.824219-8.53125 8.535156-8.53125h110.933594c4.710937 0 8.53125 3.824218 8.53125 8.53125 0 4.710937-3.820313 8.535156-8.53125 8.535156zm0 0" data-original="#000000" class="active-path" data-old_color="#000000" fill="#B677F0"/><path d="m136.535156 179.199219h-76.800781c-4.710937 0-8.535156-3.820313-8.535156-8.53125 0-4.710938 3.824219-8.535157 8.535156-8.535157h76.800781c4.707032 0 8.53125 3.824219 8.53125 8.535157 0 4.710937-3.824218 8.53125-8.53125 8.53125zm0 0" data-original="#000000" class="active-path" data-old_color="#000000" fill="#B677F0"/><path d="m170.667969 213.332031h-110.933594c-4.710937 0-8.535156-3.820312-8.535156-8.53125 0-4.710937 3.824219-8.535156 8.535156-8.535156h110.933594c4.710937 0 8.53125 3.824219 8.53125 8.535156 0 4.710938-3.820313 8.53125-8.53125 8.53125zm0 0" data-original="#000000" class="active-path" data-old_color="#000000" fill="#B677F0"/><path d="m384 358.398438c-1.519531 0-3.039062-.398438-4.386719-1.21875l-38.28125-22.964844-38.277343 22.964844c-2.859376 1.714843-6.460938 1.605468-9.21875-.28125-2.753907-1.886719-4.15625-5.195313-3.582032-8.492188l7.808594-45.175781-31.183594-32.828125c-2.210937-2.320313-2.925781-5.691406-1.859375-8.710938 1.066407-3.019531 3.746094-5.195312 6.929688-5.613281l42.546875-5.640625 19.113281-40.722656c1.410156-3.003906 4.414063-4.914063 7.722656-4.914063 3.3125 0 6.316407 1.910157 7.722657 4.90625l19.117187 40.71875 42.546875 5.640625c3.183594.421875 5.851562 2.597656 6.929688 5.617188 1.074218 3.019531.347656 6.390625-1.863282 8.710937l-31.179687 32.828125 7.808593 45.175782c.570313 3.292968-.828124 6.605468-3.585937 8.492187-1.457031 1.007813-3.136719 1.507813-4.828125 1.507813zm-42.667969-42.664063c1.519531 0 3.039063.398437 4.386719 1.21875l26.703125 16.015625-5.359375-31.042969c-.460938-2.660156.367188-5.375 2.21875-7.328125l22.605469-23.800781-30.578125-4.054687c-2.882813-.375-5.367188-2.199219-6.605469-4.828126l-13.371094-28.492187-13.371093 28.484375c-1.238282 2.628906-3.71875 4.453125-6.605469 4.828125l-30.574219 4.054687 22.605469 23.796876c1.859375 1.957031 2.679687 4.667968 2.21875 7.332031l-5.359375 31.042969 26.699218-16.015626c1.351563-.8125 2.867188-1.210937 4.386719-1.210937zm0 0" data-original="#000000" class="active-path" data-old_color="#000000" fill="#B677F0"/><path d="m341.332031 452.265625c-2.992187 0-5.777343-1.570313-7.3125-4.136719l-14.589843-24.328125c-5.582032-9.300781-13.671876-16.359375-22.792969-19.875-48.75-18.816406-92.871094-67.761719-81.511719-134.707031 9.59375-56.535156 55.664062-100.257812 112.042969-106.324219 36.863281-4.003906 72.285156 7.386719 99.660156 31.980469 27.015625 24.261719 42.503906 58.984375 42.503906 95.257812 0 50.152344-31.734375 93.679688-82.816406 113.605469-9.453125 3.6875-17.714844 10.800781-23.25 20.035157l-14.609375 24.355468c-1.546875 2.566406-4.328125 4.136719-7.324219 4.136719zm.144531-273.074219c-4.128906 0-8.292968.222656-12.472656.675782-48.820312 5.253906-88.730468 43.175781-97.050781 92.210937-10.410156 61.378906 31.648437 100.8125 70.828125 115.925781 12.644531 4.878906 23.746094 14.472656 31.273438 27.015625l7.277343 12.125 7.296875-12.160156c7.476563-12.449219 18.730469-22.09375 31.683594-27.152344 44.382812-17.304687 71.953125-54.742187 71.953125-97.699219 0-31.445312-13.421875-61.535156-36.835937-82.558593-20.625-18.527344-46.515626-28.382813-73.953126-28.382813zm0 0" data-original="#000000" class="active-path" data-old_color="#000000" fill="#B677F0"/></g> </svg>
